# Tiled2Unity generated file. Do not modify by hand.
# Wavefront file for 'Level_01_mesh_0002.obj'

# Vertices (Count = 28)
v -11.04 -7.04 0
v -11.2 -7.04 0
v -11.2 -6.88 0
v -11.04 -6.88 0
v -4.64 -7.2 0
v -4.8 -7.2 0
v -4.8 -7.04 0
v -4.64 -7.04 0
v -11.04 -7.2 0
v -11.2 -7.2 0
v -11.2 -7.04 0
v -11.04 -7.04 0
v -4.64 -7.36 0
v -4.8 -7.36 0
v -4.8 -7.2 0
v -4.64 -7.2 0
v -4.64 -7.52 0
v -4.8 -7.52 0
v -4.8 -7.36 0
v -4.64 -7.36 0
v -4.64 -7.68 0
v -4.8 -7.68 0
v -4.8 -7.52 0
v -4.64 -7.52 0
v -4.64 -7.84 0
v -4.8 -7.84 0
v -4.8 -7.68 0
v -4.64 -7.68 0

# Texture cooridinates (Count = 4)
vt 0.28 0.5217391
vt 0.32 0.5217391
vt 0.32 0.5652174
vt 0.28 0.5652174

# Normal
vn 0 0 -1

# Mesh description
g Level_01_mesh_0002

# Faces
f 1/1/1 2/2/1 3/3/1 4/4/1
f 5/1/1 6/2/1 7/3/1 8/4/1
f 9/1/1 10/2/1 11/3/1 12/4/1
f 13/1/1 14/2/1 15/3/1 16/4/1
f 17/1/1 18/2/1 19/3/1 20/4/1
f 21/1/1 22/2/1 23/3/1 24/4/1
f 25/1/1 26/2/1 27/3/1 28/4/1

